<svg xmlns="http://www.w3.org/2000/svg" width="449" height="512" fill="none">
  <path fill="#FE3776"
    d="m253.354 4.233 2.177.682c31.846 10.292 57.838 33.18 73.957 65.73 13.53 28.518 18.073 63.423 10.612 94.834-.92 3.306-2.069 6.487-3.25 9.684a235.538 235.538 0 0 0-2.473 7.12c-13.298 39.344-37.581 71.151-63.683 100.66-.927 1.049-1.852 2.098-2.776 3.15-6.03 6.851-12.231 13.19-19.004 19.129l-2.137 1.877a793.785 793.785 0 0 1-5.855 5.037l-1.981 1.699c-2.561 2.192-5.105 4.33-7.787 6.336 1.304 4.027 3.038 7.473 5.058 11.104l.948 1.714c.991 1.793 1.988 3.582 2.985 5.371 1.003 1.804 2.005 3.608 3.005 5.414.901 1.629 1.806 3.255 2.712 4.881 1.276 2.413 1.276 2.413 1.276 3.409h-46.174c3.935-8.097 7.997-15.793 12.533-23.44l1.393-2.41 1.264-2.146c1.09-2.047 1.09-2.047-.095-4.893a101.196 101.196 0 0 0-5.494-4.423c-6.318-4.899-12.12-10.309-17.864-16.019a220.296 220.296 0 0 0-3.032-2.934c-5.578-5.336-10.739-11.135-15.917-16.948-1.581-1.772-3.169-3.536-4.757-5.3-6.038-6.745-11.588-13.64-16.87-21.152a264.178 264.178 0 0 0-2.348-3.091c-23.913-31.241-45.17-73.083-44.991-115.199l.013-3.711c.409-35.808 14.309-68.048 36.584-93.244 6.474-7.07 13.694-12.718 21.398-17.97l1.591-1.095c9.527-6.434 19.702-10.478 30.376-13.856l1.848-.588c17.048-5.105 39.815-4.792 56.758.588Zm-104.17 60.61c-12.106 17.135-21.188 38.853-21.922 60.982l-.107 2.904c-.241 6.331-.241 6.331 1.883 12.045 3.119 2.334 4.32 2.488 7.992 1.994 2.397-1.794 4.033-3.074 5.328-5.98.143-1.4.243-2.806.319-4.213 1.629-25.827 9.502-47.788 26.452-66.105 14.332-13.795 32.459-23.061 51.539-22.779 3.395-.045 5.585-.579 8.225-2.897 2.519-2.501 2.519-2.501 2.872-6.163-.774-4.42-1.928-5.692-5.05-8.471-2.45-.527-4.223-.715-6.66-.623l-1.974.044c-26.6 1.277-51.636 16.983-68.897 39.261Z" />
  <path fill="#57B9B6"
    d="M419.292 191.417c13.406 14.297 22.218 31.94 26.75 52.012l.659 2.815c5.156 27.15-.871 54.89-13.978 77.914-2.21 3.5-4.562 6.764-7.104 9.967l-1.755 2.219c-31.554 37.538-85.642 50.588-129.664 52.596l-.888 30.896c-5.008-3.122-8.915-5.683-13.295-9.499-2.454-1.995-5.063-3.549-7.732-5.151-3.485-2.193-6.762-4.736-10.052-7.276 2.115-2.666 4.299-4.093 7.135-5.68l2.621-1.47 2.731-1.508 2.742-1.544c6.733-3.751 6.733-3.751 8.746-3.751l-.915-2.359c-9.856-26.418-17.086-55.668-18.62-84.349l-.362-2.5c-.435-4.613-.306-7.384 2.096-11.267 2.447-2.935 4.989-5.654 7.645-8.347.891-.936 1.78-1.875 2.666-2.816 1.717-1.824 3.44-3.64 5.167-5.452 3.064-3.308 5.831-6.809 8.539-10.481l1.384-1.838c18.208-24.3 33.456-50.994 42.816-81.11 1.755-5.612 1.755-5.612 4.194-7.187l3.108-.56 1.925-.358c26.331-3.849 53.872 6.104 73.441 26.084Z" />
  <path fill="#FEA90E"
    d="M109.503 167.684c1.124 2.709 1.892 5.14 2.664 7.973a329.12 329.12 0 0 0 1.89 5.381l1.049 2.914c12.384 33.885 32.326 66.325 56.579 91.07l1.853 1.938a135.264 135.264 0 0 0 3.651 3.654c2.411 2.529 4.021 4.414 4.663 8.115.048 2.893-.135 5.645-.424 8.52l-.27 3.09c-2.704 27.199-7.604 59.08-19.265 83.618l2.088.677c4.333 1.76 8.35 4.079 12.452 6.424l2.494 1.413a2005.8 2005.8 0 0 1 6.053 3.446v2.99c-1.273 1.207-1.273 1.207-3.052 2.367l-1.995 1.324c-1.262.793-2.53 1.574-3.808 2.335-5.53 3.301-10.603 7.224-15.723 11.258-4.641 3.645-4.641 3.645-5.613 3.645l-.888-30.896-6.548-.249c-42.26-2.387-88.643-17.001-120.43-49.583l-2.075-2.114C9.92 321.043.696 296.614.016 273.566c-.017-1.968-.02-3.937-.01-5.906l.015-3.165c.327-23.687 7.691-45.964 21.573-63.922l1.759-2.444c14.343-19.21 36.21-30.315 58.143-33.042 20.575-2 20.575-2 28.007 2.597Zm-63.046 40.863-1.803 1.561c-11.868 10.545-20.312 29.614-22.172 46.278-1.428 18.482 1.54 38.77 11.988 53.733 2.075 1.687 4.23 1.548 6.712 1.425 1.906-.254 1.906-.254 3.944-1.9 1.83-3.338 1.583-5.518 1.331-9.406-1.055-3.378-1.055-3.378-2.553-6.602-6.111-13.952-7.785-30.206-3.742-45.367 4.824-14.186 12.878-25.256 24.055-33.742 1.27-1.212 1.27-1.212 1.165-4.797-.052-2.964-.212-4.051-1.61-6.665-2.484-1.673-4.455-2.241-7.363-2.071-4.048 1.19-6.89 4.498-9.952 7.553Z" />
  <path fill="#99D5D3"
    d="M216.059 352.064h15.983l.888 117.605c8-13.866 8-13.866 15.928-27.782l1.563-2.758c6.635-11.723 13.255-23.456 19.804-35.239 3.346.827 5.709 2.337 8.602 4.423l2.619 1.864c2.098 1.686 2.098 1.686 2.986 3.68-.871 1.938-.871 1.938-2.258 4.325l-1.541 2.682-1.695 2.897-3.479 6.038-1.774 3.063a1128.07 1128.07 0 0 0-7.012 12.389 6049.956 6049.956 0 0 1-13.122 23.213 4249.958 4249.958 0 0 0-8.895 15.75c-1.313 2.336-2.627 4.67-3.942 7.004-1.607 2.852-3.207 5.71-4.801 8.572a4716.99 4716.99 0 0 1-2.15 3.827l-1.863 3.337c-1.634 2.581-1.634 2.581-4.297 4.574-4.964.629-4.964.629-7.104 0-4.047-3.757-6.564-8.426-9.268-13.392a8348.1 8348.1 0 0 0-2.827-5.104l-1.484-2.69c-2.546-4.588-5.141-9.141-7.732-13.697a5369.413 5369.413 0 0 1-12.831-22.724 2320.31 2320.31 0 0 0-7.249-12.808c-10.7-18.775-10.7-18.775-15.439-28.253l4.273-3.364 2.404-1.892c4.754-3.714 4.754-3.714 7.53-3.714 1.112 1.438 1.112 1.438 2.217 3.477l1.264 2.293 1.348 2.515 2.882 5.252 1.484 2.727c2.227 4.073 4.508 8.106 6.789 12.141a9862.52 9862.52 0 0 1 2.643 4.695l1.329 2.362c1.404 2.497 2.806 4.996 4.207 7.495l1.425 2.54c.889 1.584 1.777 3.169 2.664 4.754 2.942 5.239 5.98 10.372 9.043 15.528l.888-117.605Z" />
  <path fill="#FFFBFC"
    d="m219.888 25.6 1.881-.082c3.397.029 4.86.566 7.554 2.95 1.831 2.675 1.831 2.675 2.442 6.163-.672 3.841-1.631 5.073-4.337 7.45-2.741 1.75-5.589 1.628-8.65 1.582-20.556.573-38.85 11.367-53.333 27.346l-1.849 2.036c-13.106 15.464-19.311 35.267-20.381 56.254-.362 5.321-.764 8.653-4.409 12.472-2.523 1.416-4.311 1.31-7.104.997-2.045-1.861-3.266-3.345-4.44-5.98-1.861-25.801 7.719-52.171 22.2-71.759.608-.847 1.217-1.693 1.845-2.565 16.651-22.047 42.846-36.244 68.581-36.865Z" />
  <path fill="#FFFDFA"
    d="M61.553 201.57c2.22 1.495 2.22 1.495 3.552 3.987.777 4.917.777 4.917 0 7.973-1.765 2.459-3.94 4.148-6.216 5.98-9.89 8.695-17.795 21.026-20.177 35.104-1.417 15.925.233 29.493 6.975 43.767 1.26 3.04 1.084 5.546.77 8.834-1.331 2.429-1.331 2.429-3.551 3.987-2.89.515-4.383.765-7.104 0-9.241-8.644-12.397-26.313-13.522-39.189-1.266-21.093 5.651-41.551 17.962-57.486 2.827-3.193 5.77-6.129 8.88-8.97l1.498-1.441c3.627-3.163 6.538-3.182 10.933-2.546Z" />
  <path fill="#FFFBFC"
    d="m219.888 25.6 1.881-.082c3.397.029 4.86.566 7.554 2.95 1.831 2.675 1.831 2.675 2.442 6.163-.672 3.841-1.631 5.073-4.337 7.45-2.741 1.75-5.589 1.628-8.65 1.582-20.556.573-38.85 11.367-53.333 27.346l-1.849 2.036c-13.106 15.464-19.311 35.267-20.381 56.254-.362 5.321-.764 8.653-4.409 12.472-2.523 1.416-4.311 1.31-7.104.997-2.045-1.861-3.266-3.345-4.44-5.98-1.861-25.801 7.719-52.171 22.2-71.759.608-.847 1.217-1.693 1.845-2.565 16.651-22.047 42.846-36.244 68.581-36.865Z" />
  <path fill="#FFFDFA"
    d="M61.553 201.57c2.22 1.495 2.22 1.495 3.552 3.987.777 4.917.777 4.917 0 7.973-1.765 2.459-3.94 4.148-6.216 5.98-9.89 8.695-17.795 21.026-20.177 35.104-1.417 15.925.233 29.493 6.975 43.767 1.26 3.04 1.084 5.546.77 8.834-1.331 2.429-1.331 2.429-3.551 3.987-2.89.515-4.383.765-7.104 0-9.241-8.644-12.397-26.313-13.522-39.189-1.266-21.093 5.651-41.551 17.962-57.486 2.827-3.193 5.77-6.129 8.88-8.97l1.498-1.441c3.627-3.163 6.538-3.182 10.933-2.546Z" />
</svg>